<svg width="800" height="450" viewBox="0 0 800 450" fill="none" xmlns="http://www.w3.org/2000/svg">
  <defs>
    <linearGradient id="newsGradient" x1="0" y1="0" x2="1" y2="1">
      <stop offset="0" stop-color="#1D4ED8" />
      <stop offset="1" stop-color="#0F172A" />
    </linearGradient>
  </defs>
  <rect width="800" height="450" rx="24" fill="url(#newsGradient)" />
  <rect x="32" y="32" width="736" height="386" rx="20" fill="rgba(15,23,42,0.65)"/>
  <circle cx="120" cy="170" r="32" fill="#38BDF8" opacity="0.9"/>
  <rect x="180" y="148" width="220" height="12" rx="6" fill="#E5E7EB" opacity="0.9"/>
  <rect x="180" y="170" width="160" height="10" rx="5" fill="#CBD5F5" opacity="0.8"/>
  <rect x="80" y="240" width="360" height="10" rx="5" fill="#E5E7EB" opacity="0.85"/>
  <rect x="80" y="262" width="320" height="10" rx="5" fill="#CBD5F5" opacity="0.85"/>
  <rect x="80" y="284" width="260" height="10" rx="5" fill="#9CA3AF" opacity="0.85"/>
  <rect x="560" y="150" width="140" height="140" rx="16" fill="#0F172A" opacity="0.7"/>
  <path d="M580 262L612 214L635 238L654 214L680 246V262H580Z" fill="#38BDF8" opacity="0.9"/>
  <circle cx="606" cy="202" r="10" fill="#38BDF8" opacity="0.9"/>
  <rect x="80" y="340" width="140" height="32" rx="16" fill="#1D4ED8" opacity="0.95"/>
  <text x="92" y="362" fill="#F9FAFB" font-family="system-ui, -apple-system, BlinkMacSystemFont, 'Segoe UI', sans-serif" font-size="14" font-weight="600">
    NuxtNews
  </text>
  <rect x="240" y="346" width="90" height="4" rx="2" fill="#E5E7EB" opacity="0.9"/>
  <rect x="240" y="356" width="120" height="4" rx="2" fill="#9CA3AF" opacity="0.9"/>
</svg>

